<?xml version="1.0" encoding="iso-8859-1"?>
<!-- Uploaded to: SVG Repo, www.svgrepo.com, Generator: SVG Repo Mixer Tools -->
<svg fill="#000000" height="800px" width="800px" version="1.1" id="Layer_1" xmlns="http://www.w3.org/2000/svg" xmlns:xlink="http://www.w3.org/1999/xlink" 
	 viewBox="0 0 392.598 392.598" xml:space="preserve">
<g>
	<g>
		<path d="M301.091,163.879h-5.495v-47.063c0-2.844-1.164-5.624-3.168-7.758l-27.927-27.927c-4.267-4.267-11.119-4.267-15.451,0
			c-4.267,4.267-4.267,11.119,0,15.451l24.76,24.76v42.537h-12.671c-4.073-30.966-25.277-57.665-55.337-68.073
			c-4.784-1.681-10.15,0.259-12.8,4.59l-14.739,23.661l-14.739-23.661c-2.715-4.331-8.016-6.206-12.8-4.59
			c-30.061,10.408-51.2,37.107-55.337,68.073h-3.879c-6.012,0-10.925,4.849-10.925,10.925v41.438
			c0,6.012,4.849,10.925,10.925,10.925h7.952c9.051,35.62,16.291,71.952,20.558,143.58h-12.154c-6.012,0-10.925,4.848-10.925,10.925
			s4.848,10.925,10.925,10.925h176.873c6.012,0,10.925-4.849,10.925-10.925c0-6.012-4.848-10.925-10.925-10.925h-12.154
			c4.267-71.628,11.507-107.96,20.558-143.58h7.951c6.012,0,10.925-4.848,10.925-10.925v-41.438
			C312.016,168.792,307.103,163.879,301.091,163.879z M149.883,119.79l19.071,30.578c2.004,3.168,5.495,5.107,9.244,5.107
			c3.814,0,7.24-1.939,9.244-5.107l19.071-30.578c17.131,8.792,29.22,25.212,32.582,44.154H117.236
			C120.663,145.002,132.687,128.582,149.883,119.79z M250.731,370.683H141.737c-0.776-13.77-1.681-26.182-2.715-37.624h13.899
			c6.012,0,10.925-4.848,10.925-10.925c0-6.012-4.849-10.925-10.925-10.925h-16.097c-0.776-6.853-1.616-13.382-2.457-19.523h39.24
			c6.012,0,10.925-4.848,10.925-10.925c0-6.012-4.849-10.925-10.925-10.925h-42.667c-2.78-15.709-5.883-29.349-9.18-42.796h148.816
			C261.915,262.4,254.804,299.766,250.731,370.683z M290.166,205.253H102.238v-19.523h187.927V205.253z"/>
	</g>
</g>
<g>
	<g>
		<path d="M178.133,0c-22.174,0-40.275,18.101-40.275,40.275c0,22.174,18.101,40.275,40.275,40.275
			c22.174,0,40.275-18.101,40.275-40.275C218.408,18.036,200.307,0,178.133,0z M178.133,58.699
			c-10.214,0-18.489-8.275-18.489-18.489c0.065-10.149,8.404-18.489,18.489-18.489c10.214,0,18.489,8.275,18.489,18.489
			C196.622,50.424,188.348,58.699,178.133,58.699z"/>
	</g>
</g>
</svg>