<?xml version="1.0" encoding="iso-8859-1"?>
<!-- Uploaded to: SVG Repo, www.svgrepo.com, Generator: SVG Repo Mixer Tools -->
<svg fill="#000000" height="800px" width="800px" version="1.1" id="Layer_1" xmlns="http://www.w3.org/2000/svg" xmlns:xlink="http://www.w3.org/1999/xlink" 
	 viewBox="0 0 512.001 512.001" xml:space="preserve">
<g>
	<g>
		<path d="M334.918,177.084c-19.545-19.544-51.177-19.545-70.721-0.001c-19.544,19.542-19.547,51.177,0,70.722
			c19.543,19.544,51.175,19.546,70.721,0C354.461,228.263,354.465,196.628,334.918,177.084z M311.343,224.231
			c-6.515,6.515-17.058,6.515-23.574,0c-6.513-6.514-6.516-17.058,0-23.574c6.515-6.514,17.057-6.517,23.575,0.001
			C317.858,207.172,317.858,217.717,311.343,224.231z"/>
	</g>
</g>
<g>
	<g>
		<path d="M507.119,4.881c-6.511-6.508-17.066-6.508-23.575,0.001l-31.512,31.512c-76.44-12.355-153.982,12.54-209.016,67.573
			l-62.515,62.515c-32.344-21.392-76.435-17.859-104.896,10.601L4.883,247.806c-6.504,6.504-6.51,17.064,0,23.574
			c16.249,16.248,37.591,24.373,58.935,24.373c9.085,0,18.166-1.487,26.859-4.431l-7.311,21.935
			c-1.996,5.99-0.438,12.593,4.027,17.058l1.956,1.956c-29.645,6.135-53.561,29.614-61.388,58.312L0.588,490.945
			c-1.574,5.771,0.066,11.944,4.295,16.174c4.243,4.243,10.422,5.863,16.173,4.295l100.363-27.372
			c28.713-7.831,52.18-31.758,58.313-61.388l1.956,1.956c4.47,4.471,11.075,6.02,17.058,4.027l21.935-7.312
			c-9.86,29.112-3.223,62.629,19.942,85.793c6.504,6.505,17.065,6.51,23.574,0l70.722-70.722
			c28.792-28.792,31.872-72.886,10.611-104.906l62.505-62.505c55.034-55.033,79.929-132.576,67.573-209.016l31.513-31.513
			C513.629,21.946,513.629,11.391,507.119,4.881z M42.263,257.572l56.916-56.916c15.368-15.367,38.329-18.621,56.914-9.766
			c-12.66,12.66-44.41,44.41-56.914,56.916C83.812,263.172,60.85,266.431,42.263,257.572z M112.646,451.878l-72.219,19.696
			l19.696-72.22c8.262-30.293,46.621-49.67,74.409-21.899l0.013,0.013C162.304,405.243,142.955,443.611,112.646,451.878z
			 M197.976,393.751l-79.727-79.727l11.787-35.36l103.301,103.301L197.976,393.751z M311.344,412.823l-56.914,56.914
			c-8.856-18.586-5.601-41.548,9.767-56.916c12.575-12.576,44.547-44.548,56.931-56.931
			C329.821,374.048,327.062,397.105,311.344,412.823z M384.459,245.411c-3.952,3.952-118.23,118.23-120.263,120.263l-117.87-117.87
			L266.589,127.54c17.187-17.187,36.928-30.953,58.242-41.029l100.657,100.657C415.412,208.483,401.646,228.224,384.459,245.411z
			 M438.187,152.721L359.28,73.812c27.01-7.308,55.541-9.16,83.963-5.055C447.347,97.179,445.495,125.71,438.187,152.721z"/>
	</g>
</g>
</svg>