<?xml version="1.0" encoding="utf-8"?>
<!-- Uploaded to: SVG Repo, www.svgrepo.com, Generator: SVG Repo Mixer Tools -->
<svg width="800px" height="800px" viewBox="-53.13 0 393.653 393.653" xmlns="http://www.w3.org/2000/svg"><defs><style>.a{fill:#cfcfcf;}.b{fill:#ffffff;}.c{fill:#211715;}.d{fill:#7a7473;}</style></defs><path class="a" d="M239.01,358.6c8.871-1.667,13.211-.932,21.868-7.278,7.336-5.378,17.331-10.038,21.7-18.416a24.824,24.824,0,0,0,2.36-13.177,129.923,129.923,0,0,0-6.221-32.687c-3.763-11.155-10.6-22.652-14.66-33.7-2.969-8.083-5.917-16.176-8.661-24.339-2.987-8.885-6.3-18.07-13-24.625-3.694-3.614-8.212-6.215-12.815-8.608-3.692-2.178-7.091-4.032-9.831-5.491,2.1-2.945,3.675-6.336,3.619-9.919-.1-6.392-5.491-11.712-11.513-13.854-1.962-.7-4.018-1.143-5.9-2.025-4-1.872-11.448-14.24-20.929-15.87l-85.3.666c-9.482,1.63-15.244,13.332-19.245,15.2-1.886.882-3.942,1.327-5.9,2.025-6.023,2.142-11.413,7.462-11.513,13.854-.059,3.732,1.654,7.254,3.88,10.282-2.613,1.4-5.758,3.127-9.15,5.128-4.6,2.393-9.121,4.994-12.815,8.608-6.7,6.555-10.011,15.74-13,24.625-2.744,8.163-5.692,16.256-8.661,24.339-4.058,11.05-10.9,22.547-14.66,33.7a129.967,129.967,0,0,0-6.221,32.687,24.824,24.824,0,0,0,2.36,13.177c4.365,8.378,14.36,13.038,21.7,18.416a54.156,54.156,0,0,0,21.8,7.717"/><path class="b" d="M198.818,93.973a8.391,8.391,0,0,1,6.713-1.964,7.924,7.924,0,0,1,5.7,3.787A11.2,11.2,0,0,1,212.4,100.3a33.567,33.567,0,0,1-3.422,17.791,21.343,21.343,0,0,1-5.517,7.24,14.131,14.131,0,0,1-6.577,2.965l-1.121.172c-.546,2.025-1.152,3.725-1.449,4.627-2,5.423-13.576,24.768-27.887,30.535.19,1.686.38,2.925.689,4.694.68,3.88.47,7.35,5.87,9.3.35.13,15.19,5.19,16,5.55l.206.091c-3.412,3.735-10.15,7.384-16.166,9.243,0,0-9.415,3.061-29.234,3.061s-30.356-4.025-30.356-4.025c-6.013-1.859-12.732-5.3-16.247-8.783.379-.156.605-.253.605-.253.661-.282,12.447-4.753,12.8-4.882,5.4-1.949,5.183-5.418,5.863-9.3q.472-2.7.772-5.408a49.258,49.258,0,0,1-16.053-13.06A57.114,57.114,0,0,1,90.3,128.627l-2.142-.329a14.136,14.136,0,0,1-6.577-2.965,21.327,21.327,0,0,1-5.516-7.24A33.558,33.558,0,0,1,72.642,100.3,11.2,11.2,0,0,1,73.815,95.8a7.924,7.924,0,0,1,5.7-3.787,8.391,8.391,0,0,1,6.713,1.964S75.585,39.806,143.733,39.806,198.818,93.973,198.818,93.973Z"/><path class="c" d="M114.824,163.007a68.634,68.634,0,0,1-1.332,8.52c-.057.231-.119.461-.191.688-.05.159-.262.7-.075.277a6.784,6.784,0,0,1-.371.719c-.088.147-.516.672-.233.36a8.43,8.43,0,0,1-.624.63c-.039.035-.344.269-.074.069-.1.075-.207.146-.314.212a9.559,9.559,0,0,1-1.657.834c-2.93,1.119-5.866,2.221-8.8,3.339-1.334.509-2.685.988-4,1.541a2.48,2.48,0,0,0-1.676,2.952,2.415,2.415,0,0,0,2.952,1.677c3.158-1.327,6.41-2.461,9.612-3.676,1.165-.442,2.336-.87,3.5-1.321a10.007,10.007,0,0,0,6.358-6.24,23.179,23.179,0,0,0,.732-3.733c.35-2.282.734-4.552.993-6.848a2.415,2.415,0,0,0-2.4-2.4,2.456,2.456,0,0,0-2.4,2.4Z"/><path class="c" d="M164.026,163.626c.236,2.048.585,4.072.9,6.108a23.06,23.06,0,0,0,.786,3.952c1.1,3.223,3.565,5.144,6.7,6.277,3.644,1.317,7.336,2.514,11,3.781q1.61.556,3.216,1.12c.362.128.724.255,1.085.386.269.1,1.133.457.063,0a2.482,2.482,0,0,0,3.284-.861,2.418,2.418,0,0,0-.861-3.284c-3.4-1.456-7-2.5-10.492-3.7l-5.288-1.814c-.409-.141-.83-.27-1.227-.443a4.9,4.9,0,0,1-2.579-2.132c-.075-.136-.146-.276-.21-.417.139.306-.017-.05-.059-.184-.093-.3-.186-.6-.26-.905-.164-.672-.272-1.357-.375-2.041-.295-1.947-.657-3.882-.882-5.838a2.473,2.473,0,0,0-2.4-2.4,2.415,2.415,0,0,0-2.4,2.4Z"/><path class="c" d="M228.457,232.9c-3.753,15.29-7.728,30.576-10.689,46.045-.517,2.7-1,5.413-1.3,8.146-.289,2.583-.221,5.2-.251,7.8-.068,5.971-.059,11.942-.029,17.914.041,8.075.1,16.151.1,24.226,0,3.089,4.8,3.094,4.8,0,0-13.158-.2-26.317-.094-39.474.023-2.915-.018-5.848.129-8.759.023-.453.064-.906.11-1.357.055-.535.113-1,.149-1.251.187-1.343.415-2.681.656-4.016,1.315-7.3,3-14.533,4.7-21.751,2.057-8.763,4.211-17.5,6.356-26.247.737-3-3.891-4.279-4.628-1.276Z"/><path class="c" d="M239.152,307.916c2.664,1.581,5.7,2.413,8.367,4a2.4,2.4,0,0,0,2.423-4.145c-2.666-1.586-5.7-2.419-8.368-4a2.4,2.4,0,0,0-2.422,4.145Z"/><path class="c" d="M46.038,303.771c-2.664,1.581-5.7,2.414-8.368,4a2.4,2.4,0,1,0,2.423,4.145c2.666-1.587,5.7-2.419,8.367-4a2.4,2.4,0,0,0-2.422-4.145Z"/><path class="c" d="M53.7,234.18c3.723,15.169,7.654,30.334,10.618,45.675.285,1.477.558,2.957.8,4.442.2,1.224.318,2,.428,3.033.277,2.623.2,5.29.228,7.924.065,5.911.055,11.822.025,17.733-.041,8.016-.1,16.032-.1,24.048,0,3.089,4.8,3.094,4.8,0,0-13.275.2-26.551.091-39.827-.024-2.858.036-5.743-.137-8.6a64.453,64.453,0,0,0-1.014-7.369c-1.306-7.34-3-14.613-4.7-21.869-2.072-8.838-4.245-17.653-6.408-26.469-.736-3-5.366-1.728-4.629,1.276Z"/><path class="b" d="M143.641,252.762c-39.487.286-78.782.516-92.735.563a4.01,4.01,0,0,0-4,4.029c.081,22.669,1.174,101.122,2.007,129.958a4.017,4.017,0,0,0,4.086,3.9c12.609-.194,51.663-.074,90.641.059,38.977-.133,78.031-.253,90.641-.059a4.015,4.015,0,0,0,4.085-3.9c.833-28.836,1.927-107.289,2.008-129.958a4.012,4.012,0,0,0-4-4.029C222.423,253.278,183.127,253.048,143.641,252.762Z"/><path class="b" d="M143.641,310.857c-4.045.039-7.914.069-8.653.069-.007,1.89-.041,13.406.041,16.579h0c.342-.043,4.481-.026,8.611-.008,4.129-.018,8.268-.035,8.61.008h0c.082-3.173.048-14.689.041-16.579C151.554,310.926,147.685,310.9,143.641,310.857Z"/><path class="c" d="M143.641,250.362q-41.394.3-82.788.52l-6.34.029c-1.908.008-4.083-.248-5.883.453-2.887,1.125-4.133,3.774-4.12,6.731q.009,2.028.023,4.056.081,11.677.232,23.355.367,31.124.91,62.246.243,13.923.544,27.844.12,5.295.263,10.59c.086,3.088,1.13,5.851,4.246,7.023,1.737.654,3.8.38,5.623.363,25.287-.227,50.581-.024,75.868.06,28.8.095,57.608-.168,86.412-.116,4.239.008,8.477.02,12.716.06,2.047.02,4.2.274,6.075-.747,2.7-1.474,3.307-4.1,3.385-6.932.22-7.935.382-15.872.536-23.809q.606-31.2,1-62.4.182-13.722.323-27.446.051-5.229.089-10.459c.009-1.329.027-2.659.022-3.989a6.6,6.6,0,0,0-4.746-6.651c-1.771-.486-3.883-.226-5.71-.234q-3.23-.013-6.458-.03-8.048-.039-16.1-.086-21.425-.123-42.849-.268-11.637-.078-23.273-.163c-3.09-.022-3.093,4.778,0,4.8q40.82.3,81.64.514l6.1.029c1.643.007,3.355-.121,4.992.02,1.818.156,1.6,1.921,1.592,3.308q-.011,2.031-.025,4.063-.086,11.637-.236,23.272-.361,30.375-.888,60.748-.239,13.68-.531,27.357-.119,5.37-.261,10.739c-.034,1.268.276,3.289-1.4,3.59a12.842,12.842,0,0,1-2.286-.016q-1.248-.014-2.5-.023c-24.925-.193-49.856-.013-74.781.069-28.263.093-56.526-.157-84.788-.118-4.427.006-8.854.016-13.28.053a22.757,22.757,0,0,1-4.366.019c-1.742-.349-1.349-2.644-1.384-3.973-.214-7.963-.376-15.928-.53-23.893Q50.13,330.464,49.747,300q-.177-13.392-.317-26.786-.054-5.251-.093-10.5-.015-2-.024-4c-.008-1.583,0-2.966,1.952-2.99,23.193-.284,46.4-.246,69.589-.4q11.394-.076,22.787-.159C146.728,255.14,146.735,250.34,143.641,250.362Z"/><path class="c" d="M65.953,379.421c19.134-.119,38.27-.017,57.4.042,23.359.072,46.716-.038,70.075-.072,9.3-.014,18.6-.028,27.9.03,3.09.019,3.093-4.781,0-4.8-19.134-.119-38.27-.017-57.4.042-23.358.072-46.716-.038-70.074-.072-9.3-.014-18.6-.028-27.9.03-3.087.019-3.094,4.819,0,4.8Z"/><path class="c" d="M143.641,308.457c-2.884.028-5.768.066-8.653.069a2.437,2.437,0,0,0-2.4,2.4q-.016,4.538-.012,9.076c0,1.777.006,3.554.022,5.331,0,.639,0,1.28.025,1.918a2.533,2.533,0,0,0,2.708,2.642c5.184,0,10.369-.036,15.553-.012a4.986,4.986,0,0,0,2.579-.3c1.174-.686,1.192-1.929,1.209-3.119.023-1.664.027-3.328.031-4.992q.012-5.271-.01-10.541a2.436,2.436,0,0,0-2.4-2.4c-2.884,0-5.768-.041-8.652-.069a2.4,2.4,0,0,0,0,4.8c2.884.028,5.768.066,8.652.069l-2.4-2.4c.022,5.524.1,11.057-.041,16.579l.328-1.211h0l2.072-1.189c-.95-.087-1.932-.027-2.885-.027-1.908,0-3.817.019-5.725.019-1.864,0-3.727-.017-5.591-.019-1,0-2.025-.065-3.02.027L137.1,326.3h0l.327,1.211c-.137-5.522-.062-11.055-.041-16.579l-2.4,2.4c2.885,0,5.769-.041,8.653-.069a2.4,2.4,0,1,0,0-4.8Z"/><path class="c" d="M48.285,356.642c-.67-.082-1.779-.251-2.792-.442q-1.964-.371-3.894-.9a50.98,50.98,0,0,1-8.222-3.032c-1.646-.773-3.257-1.619-4.834-2.524-1.4-.806-2.693-1.812-4.041-2.709-2.462-1.638-4.971-3.2-7.4-4.895-4.765-3.317-9.518-7.365-11.324-13.089a26.964,26.964,0,0,1-.88-10.264c.278-3.7.676-7.4,1.244-11.068A115.113,115.113,0,0,1,11.7,285.614c2.564-6.968,5.985-13.584,9.114-20.307C27.173,251.639,31.3,237.142,36.6,223.064c2.589-6.875,5.992-13.585,11.654-18.437a52.107,52.107,0,0,1,9.6-6.18c3.551-1.886,7-3.967,10.549-5.865,2.725-1.457.3-5.6-2.423-4.145-3.231,1.728-6.375,3.611-9.592,5.362a73.531,73.531,0,0,0-9.2,5.584,41.953,41.953,0,0,0-12.868,16.7c-3.072,6.805-5.2,14-7.679,21.033-2.656,7.521-5.2,15.148-8.451,22.435-3.176,7.116-6.773,14.038-9.738,21.249a110.456,110.456,0,0,0-6.433,22.629C1.3,307.427.767,311.454.381,315.491A45.056,45.056,0,0,0,.362,326.93c1.081,6.87,5.211,12.319,10.545,16.552,2.5,1.98,5.133,3.756,7.8,5.493s5.26,3.711,8.038,5.269a57.733,57.733,0,0,0,17.89,6.662c1.211.217,2.429.386,3.649.536a2.413,2.413,0,0,0,2.4-2.4,2.46,2.46,0,0,0-2.4-2.4Z"/><path class="c" d="M94.753,183.671c4.724,5.334,12.067,8.208,18.655,10.4a76.034,76.034,0,0,0,14.776,2.991,143.271,143.271,0,0,0,28.809.408,90.3,90.3,0,0,0,15.688-2.369,44.325,44.325,0,0,0,7.38-2.78c4.552-2.121,9.115-4.914,12.167-8.981a2.415,2.415,0,0,0-.861-3.284,2.457,2.457,0,0,0-3.283.861c-2.309,3.076-6.256,5.23-9.678,6.894a39.267,39.267,0,0,1-6.578,2.547,72.2,72.2,0,0,1-12.745,2.128,146.812,146.812,0,0,1-27.834.109,80.015,80.015,0,0,1-15.752-2.9c-1.876-.572-3.747-1.212-5.56-1.955-4.211-1.726-8.728-4.013-11.79-7.47-2.053-2.317-5.437,1.088-3.394,3.394Z"/><path class="c" d="M99.081,146.964c-6.352,1.17-11.021,6.084-15.072,10.75-.841.969-1.672,1.948-2.557,2.877-.345.362-.7.719-1.07,1.053-.166.149-.333.295-.508.433.465-.367-.077.047-.21.116a37.12,37.12,0,0,1-5.31,1.854,22.876,22.876,0,0,0-5.244,2.506,19.219,19.219,0,0,0-7.408,8.691,15.23,15.23,0,0,0,.376,11.768c2.964,6.981,9.18,12.18,15.447,16.142C84.406,207.5,92.4,211.043,100.6,211.7a2.42,2.42,0,0,0,2.4-2.4,2.448,2.448,0,0,0-2.4-2.4c-6.3-.5-12.548-3.209-18.009-6.306-5.64-3.2-11.288-7.283-14.755-12.88-1.837-2.967-3-6.4-1.975-9.864A13.421,13.421,0,0,1,71.38,170.8c3.187-2.141,6.931-2.55,10.305-4.247a16.136,16.136,0,0,0,4.478-4.02c3.931-4.47,8-9.8,14.194-10.942a2.422,2.422,0,0,0,1.676-2.952,2.451,2.451,0,0,0-2.952-1.676Z"/><path class="c" d="M184.382,150.926c5.71,1.053,10.012,5.638,13.836,9.677a49.578,49.578,0,0,0,4.865,4.826c2.645,2.112,6.054,2.429,9.076,3.764a15.956,15.956,0,0,1,7.293,6.168,10.441,10.441,0,0,1,.623,9.5c-2.44,6.141-8.181,10.721-13.6,14.15-6.117,3.871-13.367,7.307-20.648,7.887a2.461,2.461,0,0,0-2.4,2.4,2.419,2.419,0,0,0,2.4,2.4c7.333-.584,14.443-3.516,20.767-7.153,6.4-3.678,12.7-8.489,16.473-14.961a16.913,16.913,0,0,0,2.308-12.331,17.3,17.3,0,0,0-6.09-9.241,22.026,22.026,0,0,0-4.87-3.037c-2-.893-4.114-1.412-6.176-2.14a8.548,8.548,0,0,1-1.677-.763c-.168-.1-.522-.377-.159-.093-.209-.164-.411-.338-.611-.515-.915-.809-1.76-1.7-2.6-2.582-4.874-5.128-10.219-11.234-17.533-12.582a2.466,2.466,0,0,0-2.953,1.676,2.421,2.421,0,0,0,1.677,2.952Z"/><path class="c" d="M239.648,360.918c5.666-1.051,11.351-1.4,16.62-3.942a69.341,69.341,0,0,0,8.42-5.4c2.6-1.75,5.266-3.4,7.843-5.188,5.22-3.617,10.3-7.879,12.85-13.854,3.149-7.373,1.917-15.607.873-23.3a122.288,122.288,0,0,0-5.3-23.034c-2.52-7.391-6.051-14.391-9.378-21.439-3.339-7.075-6.065-14.319-8.72-21.674-2.645-7.33-4.959-14.8-7.758-22.069-2.5-6.5-5.644-12.885-10.579-17.906-5.263-5.353-12.266-8.678-18.747-12.286q-2.183-1.215-4.386-2.39c-2.723-1.456-5.151,2.686-2.423,4.145,3.169,1.695,6.258,3.522,9.4,5.262a83.371,83.371,0,0,1,8.873,5.3c5.416,3.943,9.041,9.512,11.747,15.552,2.917,6.51,4.9,13.442,7.274,20.159,2.595,7.336,5.107,14.744,8.223,21.878,3.006,6.884,6.507,13.542,9.435,20.461a108.125,108.125,0,0,1,6.414,21.441q1.087,5.566,1.685,11.212a51.952,51.952,0,0,1,.441,11.142c-.707,6.425-4.467,11.209-9.395,15.1-2.562,2.021-5.335,3.769-8.067,5.548-3.023,1.967-5.887,4.227-9,6.046-5.45,3.187-11.556,3.482-17.626,4.607a2.421,2.421,0,0,0-1.676,2.952,2.452,2.452,0,0,0,2.952,1.677Z"/><path class="d" d="M187.024,81.417A70.189,70.189,0,0,0,166.071,65.1l-11.535-2.736c-7.15,3.275-20.088,10.342-21.214,9.857-.776-.333-2.185-3.585-3.192-6.689a24.811,24.811,0,0,1-1.152-4.767A530.964,530.964,0,0,0,88.25,97.785c-.478-3.994-4.83-6.36-8.739-5.776a8.069,8.069,0,0,0-1.929.541c-4.338-17.946-3.26-33.136.373-43.8,3.294-9.673,10.733-20.69,20.124-25.566-3.181-1.507-6.814-3.244-6.814-3.244,14.118-14.208,32.688-17.463,48.806-16.97,17.21.526,30.655,7.3,38.722,18.351L188.07,29c7.6,3.938,14.735,12.049,18.438,22.4,5.269,14.732,4.657,30.259.487,40.963a8.283,8.283,0,0,0-1.464-.36c-3.457-.517-7.261,1.275-8.4,4.467A70.015,70.015,0,0,0,187.024,81.417Z"/><path class="c" d="M186.858,31.074C202.6,39.347,208.5,59.032,207.842,75.72a51.708,51.708,0,0,1-2.423,13.951c-.956,2.945,3.678,4.207,4.629,1.276a61.549,61.549,0,0,0,1.767-28.409c-1.543-9.813-5.208-19.3-11.738-26.874a37.4,37.4,0,0,0-10.8-8.735c-2.732-1.435-5.161,2.706-2.423,4.145Z"/><path class="c" d="M100.317,19.6C90.251,23.367,82.779,32.45,78.206,41.9c-4.477,9.254-6.05,19.6-5.832,29.818a101.738,101.738,0,0,0,2.863,21.34c.715,3,5.345,1.732,4.629-1.276-4.635-19.466-4.329-41.8,9.107-57.871,3.4-4.071,7.585-7.8,12.62-9.69a2.467,2.467,0,0,0,1.676-2.953,2.419,2.419,0,0,0-2.952-1.676Z"/><path class="c" d="M180.865,19.681C173.225,9.305,161.619,3.028,148.992,1c-12.918-2.074-27.112-.979-39.34,3.79A58.2,58.2,0,0,0,89.568,17.814c-2.188,2.185,1.2,5.58,3.394,3.394C102.023,12.16,114.008,7.029,126.64,5.5c12.034-1.458,24.988-.782,35.955,4.811A40.04,40.04,0,0,1,176.72,22.1a2.474,2.474,0,0,0,3.284.861,2.418,2.418,0,0,0,.861-3.284Z"/><path class="c" d="M153.324,60.291c-5.521,2.538-10.864,5.442-16.359,8.036-.568.268-1.137.533-1.712.788-.2.089-.4.178-.6.264.52-.221-.22.086-.315.122-.318.123-.645.216-.964.332-.082.03-.231.023-.3.072.6-.408,1.089.457,1.725.457q-.24-.262-.013,0c-.075-.11-.145-.224-.212-.34-.174-.331-.362-.654-.526-.992a26.417,26.417,0,0,1-1.014-2.45,26.657,26.657,0,0,1-1.649-5.819,2.437,2.437,0,0,0-4.1-1.7c-10.587,8.8-20.938,17.835-30.868,27.372q-5.207,5-10.318,10.1c-2.2,2.179,1.2,5.573,3.394,3.394,10.3-10.23,20.832-20.207,31.874-29.64q4.624-3.949,9.312-7.828l-4.1-1.7a33.254,33.254,0,0,0,3.24,10.527c1,2.111,2.422,3.852,4.944,3.137a34.663,34.663,0,0,0,5.381-2.316c2.476-1.187,4.926-2.429,7.38-3.66,2.727-1.368,5.452-2.742,8.224-4.016a2.419,2.419,0,0,0,.861-3.284,2.456,2.456,0,0,0-3.284-.861Z"/><path class="c" d="M164.86,67.171a68.751,68.751,0,0,1,31.207,32.651,2.418,2.418,0,0,0,3.283.861,2.457,2.457,0,0,0,.861-3.284,72.91,72.91,0,0,0-32.928-34.372c-2.746-1.4-5.178,2.738-2.423,4.144Z"/><path class="c" d="M200.515,95.67a5.916,5.916,0,0,1,8.257.731c1.207,1.542,1.274,3.817,1.333,5.68a30.05,30.05,0,0,1-.381,6.022c-1.276,7.419-5.21,16.469-13.478,17.881a2.419,2.419,0,0,0-1.676,2.952,2.455,2.455,0,0,0,2.952,1.676c8.411-1.436,13.415-9.321,15.782-16.887a35.4,35.4,0,0,0,1.561-12.534c-.243-4.155-1.444-8.077-5.264-10.262a10.891,10.891,0,0,0-12.48,1.347,2.421,2.421,0,0,0,0,3.394,2.448,2.448,0,0,0,3.394,0Z"/><path class="c" d="M194.4,122.052a28.567,28.567,0,0,1-1.376,7.266c-.259.858-.542,1.708-.827,2.558-.077.231-.151.464-.236.692-.035.1-.079.191-.112.288-.172.5.14-.31.03-.069a58.416,58.416,0,0,1-3.746,6.854,66.68,66.68,0,0,1-15.018,17.284,28.47,28.47,0,0,1-11.011,5.548c-3.009.691-1.736,5.32,1.276,4.628,8.36-1.918,15.359-7.942,20.875-14.243a72.407,72.407,0,0,0,11.585-17.236,36.54,36.54,0,0,0,3.36-13.57c.1-3.09-4.7-3.086-4.8,0Z"/><path class="c" d="M87.921,92.276A10.846,10.846,0,0,0,77.035,90.2c-4.108,1.594-6.178,5.011-6.7,9.264a34.387,34.387,0,0,0,6.008,23.74,17.843,17.843,0,0,0,11.178,7.413,2.47,2.47,0,0,0,2.952-1.676,2.419,2.419,0,0,0-1.676-2.952c-8.268-1.412-12.2-10.461-13.478-17.881a30.124,30.124,0,0,1-.381-6.022c.058-1.872.133-4.128,1.333-5.68a5.913,5.913,0,0,1,8.257-.731,2.461,2.461,0,0,0,3.394,0,2.421,2.421,0,0,0,0-3.394Z"/><path class="c" d="M86.182,121.213a67.35,67.35,0,0,0,8.587,23.813,53.745,53.745,0,0,0,20.194,19.44,39.123,39.123,0,0,0,14.21,4.274,2.417,2.417,0,0,0,2.4-2.4,2.454,2.454,0,0,0-2.4-2.4c-16.916-1.749-30.075-16.921-35.367-32.166a75.235,75.235,0,0,1-3-11.837,2.419,2.419,0,0,0-2.952-1.676,2.454,2.454,0,0,0-1.676,2.952Z"/><path class="c" d="M132.805,142.876a22.063,22.063,0,0,0,10.626,2.451c3.768-.024,7.619-.748,10.642-3.1a2.413,2.413,0,0,0,0-3.394,2.46,2.46,0,0,0-3.394,0c.7-.548.067-.067-.113.049-.217.139-.442.268-.67.388-.145.076-.915.412-.345.184-.3.122-.612.235-.924.336a16.418,16.418,0,0,1-5.544.74,17.09,17.09,0,0,1-5.29-.712c-.339-.1-.669-.222-1-.337-.108-.038-.213-.093-.323-.126.582.175.133.06-.012-.008-.414-.195-.822-.4-1.228-.613a2.452,2.452,0,0,0-3.283.861,2.427,2.427,0,0,0,.861,3.284Z"/><path class="c" d="M142.4,117.6a51.04,51.04,0,0,1,1.2,5.476l-.085-.638a3.287,3.287,0,0,1,.02.755l.086-.638a1.875,1.875,0,0,1-.083.34l.242-.573a1.4,1.4,0,0,1-.12.218l.375-.485a1.146,1.146,0,0,1-.179.176l.486-.375a3.6,3.6,0,0,1-.434.229l.574-.242a3.176,3.176,0,0,1-.731.214l.638-.086a2.97,2.97,0,0,1-.686,0l.638.085c-.259-.036-.513-.1-.772-.134a2.655,2.655,0,0,0-1.849.242,2.4,2.4,0,0,0-.861,3.284,2.3,2.3,0,0,0,1.434,1.1c.553.074,1.089.216,1.651.241a5.2,5.2,0,0,0,2.387-.561A3.36,3.36,0,0,0,148.215,124a5.753,5.753,0,0,0-.026-2.44c-.3-1.764-.706-3.512-1.16-5.243A2.4,2.4,0,1,0,142.4,117.6Z"/><path class="c" d="M113.058,102.2c-.914,2.972-.318,9.807,5.311,10.388,7.44-.044,7.835-8.308,5.331-12.193C121.649,97.212,115.62,95.889,113.058,102.2Z"/><path class="c" d="M172.636,102.2c.915,2.971.319,9.806-5.31,10.387-7.44-.044-7.836-8.308-5.332-12.194C164.045,97.212,170.074,95.889,172.636,102.2Z"/></svg>