<?xml version="1.0" standalone="no"?>
<!DOCTYPE svg PUBLIC "-//W3C//DTD SVG 20010904//EN"
 "http://www.w3.org/TR/2001/REC-SVG-20010904/DTD/svg10.dtd">
<svg version="1.0" xmlns="http://www.w3.org/2000/svg"
 width="230.000000pt" height="230.000000pt" viewBox="0 0 230.000000 230.000000"
 preserveAspectRatio="xMidYMid meet">
<metadata>
Created by potrace 1.11, written by Peter Selinger 2001-2013
</metadata>
<g transform="translate(0.000000,230.000000) scale(0.100000,-0.100000)"
fill="#000000" stroke="none">
<path d="M1038 2286 c-10 -10 -19 -11 -32 -4 -9 5 -22 7 -29 4 -7 -2 -5 -5 5
-5 16 -1 15 -5 -4 -38 -12 -21 -25 -40 -29 -43 -15 -12 -39 -73 -54 -139 -9
-39 -21 -71 -27 -71 -7 0 -8 -14 -5 -37 5 -27 2 -42 -10 -55 -14 -16 -14 -18
8 -28 25 -12 25 -8 28 -175 1 -27 -4 -84 -10 -125 -17 -115 -17 -205 2 -326
20 -130 53 -208 114 -270 l42 -41 -85 -21 c-96 -24 -124 -44 -148 -108 l-16
-43 -128 0 c-112 0 -130 2 -148 20 -18 16 -36 19 -106 19 -47 0 -96 4 -109 9
-13 5 -60 12 -103 15 -43 4 -94 9 -111 12 l-33 6 24 -68 c56 -164 144 -303
277 -434 108 -107 107 -106 181 -153 89 -57 142 -84 219 -112 83 -30 79 -29
174 -51 74 -17 313 -25 396 -12 181 26 387 114 527 223 56 42 182 171 222 225
56 76 133 214 124 223 -4 3 -9 26 -11 49 -7 72 -32 158 -60 210 -67 123 -221
191 -430 191 -51 -1 -93 1 -93 3 0 15 25 52 32 48 39 -24 158 58 199 138 23
45 25 125 3 156 -8 12 -10 22 -5 22 6 0 10 3 9 8 -1 4 4 20 11 36 6 16 9 31 6
34 -2 3 0 11 5 17 6 7 11 31 12 54 1 22 5 41 10 41 4 0 8 34 8 75 l0 75 28 0
c29 0 29 1 23 52 -1 3 -19 24 -41 46 -34 33 -40 45 -40 80 0 48 -23 69 -80 73
-40 3 -70 24 -70 49 0 29 -148 93 -300 130 -111 27 -351 38 -372 16z"/>
</g>
</svg>
